<?xml version="1.0" standalone="no"?>
<!DOCTYPE svg PUBLIC "-//W3C//DTD SVG 20010904//EN"
 "http://www.w3.org/TR/2001/REC-SVG-20010904/DTD/svg10.dtd">
<svg version="1.0" xmlns="http://www.w3.org/2000/svg"
 width="512.000000pt" height="512.000000pt" viewBox="0 0 512.000000 512.000000"
 preserveAspectRatio="xMidYMid meet">

<g transform="translate(0.000000,512.000000) scale(0.100000,-0.100000)"
fill="#000000" stroke="none">
<path d="M2492 3698 c-35 -442 -67 -823 -70 -846 l-7 -44 -505 417 c-615 508
-550 456 -524 425 142 -168 785 -952 782 -954 -2 -2 -454 -31 -1005 -67 -552
-35 -1003 -66 -1003 -69 0 -3 447 -34 993 -69 545 -34 1012 -66 1036 -69 l43
-7 -368 -445 c-493 -597 -501 -607 -479 -589 823 679 1022 843 1031 850 7 6
30 -246 74 -801 36 -446 67 -810 70 -810 3 0 31 332 63 737 32 406 61 754 64
774 l5 37 387 -316 c580 -474 597 -488 580 -467 -344 417 -839 1030 -833 1031
5 2 489 33 1077 71 587 37 1067 70 1067 73 0 3 -447 34 -992 69 -546 35 -1016
66 -1044 70 l-51 6 274 335 c151 184 329 403 396 485 l122 150 -80 -66 c-448
-367 -897 -731 -899 -728 -2 2 -32 367 -67 812 -35 444 -66 807 -69 807 -3 0
-34 -361 -68 -802z"/>
</g>
</svg>
